# Blender v2.79 (sub 0) OBJ File: 'Spike.blend'
# www.blender.org
mtllib Spikes.mtl
o Spike.003_Spikey.003
v 0.375000 0.000000 -0.125000
v 0.375000 0.375000 0.000000
v 0.483253 0.000000 -0.062500
v 0.483253 0.000000 0.062500
v 0.375000 0.000000 0.125000
v 0.266747 0.000000 0.062500
v 0.266747 0.000000 -0.062500
vt 0.683412 0.139244
vt 0.247237 0.752655
vt 0.470066 0.033718
vt 0.234436 0.000087
vt 0.000087 0.041712
vt 0.999913 0.752655
vt 0.962279 0.517631
vt 0.853141 0.306110
vn 0.4804 0.2774 -0.8321
vn 0.9608 0.2774 0.0000
vn 0.4804 0.2774 0.8321
vn -0.4804 0.2774 0.8321
vn -0.9608 0.2774 0.0000
vn -0.4804 0.2773 -0.8321
usemtl Spike_Material
s off
f 1/1/1 2/2/1 3/3/1
f 3/3/2 2/2/2 4/4/2
f 4/4/3 2/2/3 5/5/3
f 5/6/4 2/2/4 6/7/4
f 6/7/5 2/2/5 7/8/5
f 7/8/6 2/2/6 1/1/6
o Spike.002_Spikey.002
v 0.125000 0.000000 -0.125000
v 0.125000 0.375000 0.000000
v 0.233253 0.000000 -0.062500
v 0.233253 0.000000 0.062500
v 0.125000 0.000000 0.125000
v 0.016747 0.000000 0.062500
v 0.016747 0.000000 -0.062500
vt 0.683412 0.139244
vt 0.247237 0.752655
vt 0.470066 0.033718
vt 0.234436 0.000087
vt 0.000087 0.041712
vt 0.999913 0.752655
vt 0.962279 0.517631
vt 0.853141 0.306110
vn 0.4804 0.2774 -0.8321
vn 0.9608 0.2774 0.0000
vn 0.4804 0.2774 0.8321
vn -0.4804 0.2774 0.8321
vn -0.9608 0.2774 0.0000
vn -0.4804 0.2774 -0.8321
usemtl Spike_Material
s off
f 8/9/7 9/10/7 10/11/7
f 10/11/8 9/10/8 11/12/8
f 11/12/9 9/10/9 12/13/9
f 12/14/10 9/10/10 13/15/10
f 13/15/11 9/10/11 14/16/11
f 14/16/12 9/10/12 8/9/12
o Spike.001_Spikey.001
v -0.125000 0.000000 -0.125000
v -0.125000 0.375000 0.000000
v -0.016747 0.000000 -0.062500
v -0.016747 0.000000 0.062500
v -0.125000 0.000000 0.125000
v -0.233253 0.000000 0.062500
v -0.233253 0.000000 -0.062500
vt 0.683412 0.139244
vt 0.247237 0.752655
vt 0.470066 0.033718
vt 0.234436 0.000087
vt 0.000087 0.041712
vt 0.999913 0.752655
vt 0.962279 0.517631
vt 0.853141 0.306110
vn 0.4804 0.2774 -0.8321
vn 0.9608 0.2774 0.0000
vn 0.4804 0.2774 0.8321
vn -0.4804 0.2774 0.8321
vn -0.9608 0.2774 0.0000
vn -0.4804 0.2774 -0.8321
usemtl Spike_Material
s off
f 15/17/13 16/18/13 17/19/13
f 17/19/14 16/18/14 18/20/14
f 18/20/15 16/18/15 19/21/15
f 19/22/16 16/18/16 20/23/16
f 20/23/17 16/18/17 21/24/17
f 21/24/18 16/18/18 15/17/18
o Spike_Spikey
v -0.375000 0.000000 -0.125000
v -0.375000 0.375000 0.000000
v -0.266747 0.000000 -0.062500
v -0.266747 0.000000 0.062500
v -0.375000 0.000000 0.125000
v -0.483253 0.000000 0.062500
v -0.483253 0.000000 -0.062500
vt 0.683412 0.139244
vt 0.247237 0.752655
vt 0.470066 0.033718
vt 0.234436 0.000087
vt 0.000087 0.041712
vt 0.999913 0.752655
vt 0.962279 0.517631
vt 0.853141 0.306110
vn 0.4804 0.2774 -0.8321
vn 0.9608 0.2774 0.0000
vn 0.4804 0.2774 0.8321
vn -0.4804 0.2774 0.8321
vn -0.9608 0.2774 0.0000
vn -0.4804 0.2774 -0.8321
usemtl Spike_Material
s off
f 22/25/19 23/26/19 24/27/19
f 24/27/20 23/26/20 25/28/20
f 25/28/21 23/26/21 26/29/21
f 26/30/22 23/26/22 27/31/22
f 27/31/23 23/26/23 28/32/23
f 28/32/24 23/26/24 22/25/24
